<?xml version="1.0" encoding="UTF-8"?>
<svg height="600" width="800" xmlns="http://www.w3.org/2000/svg" xmlns:xlink="http://www.w3.org/1999/xlink">
    <g id="Notes" font-family="'LucidaGrande', 'Lucida Grande', sans-serif" font-size="13">
        <rect fill="white" height="600.0" width="800.0" x="0.0" y="0.0" />
        <g font-size="13">
            <text x="18.0" y="176.0">Small</text>
            <text x="18.0" y="376.0">Medium</text>
            <text x="18.0" y="576.0">Large</text>
        </g>
        <g font-size="9">
            <text x="250.0" y="30.0">Ultralight</text>
            <text x="450.0" y="30.0">Regular</text>
            <text x="650.0" y="30.0">Black</text>
            <text id="template-version" fill="#505050" text-anchor="end" x="785.0" y="575.0">Template v.3.0</text>
            <a href="https://wangchujiang.com/#/app">
                <text fill="#505050" text-anchor="end" x="785.0" y="590.0">https://wangchujiang.com/#/app</text>
            </a>
        </g>
    </g>
    <g id="Guides" stroke="rgb(39, 170, 225)" stroke-width="0.5">
        <path id="Capline-S" d="M18,76 l800,0" />
        <path id="H-reference" d="M85,145.755 L87.685,145.755 L113.369,79.287 L114.052,79.287 L114.052,76 L112.148,76 L85,145.755 Z M95.693,121.536 L130.996,121.536 L130.263,119.313 L96.474,119.313 L95.693,121.536 Z M139.15,145.755 L141.787,145.755 L114.638,76 L113.466,76 L113.466,79.287 L139.15,145.755 Z" stroke="none" />
        <path id="Baseline-S" d="M18,146 l800,0" />
        <path id="left-margin-Ultralight-S" d="M215.332,56 l0,110" />
        <path id="right-margin-Ultralight-S" d="M314.668,56 l0,110" />
        <path id="left-margin-Regular-S" d="M415.332,56 l0,110" />
        <path id="right-margin-Regular-S" d="M514.668,56 l0,110" />
        <path id="left-margin-Black-S" d="M615.332,56 l0,110" />
        <path id="right-margin-Black-S" d="M714.668,56 l0,110" />
        <path id="Capline-M" d="M18,276 l800,0" />
        <path id="Baseline-M" d="M18,346 l800,0" />
        <path id="Capline-L" d="M18,476 l800,0" />
        <path id="Baseline-L" d="M18,546 l800,0" />
    </g>
    <g id="Symbols">
        <g id="Ultralight-S">
            <path d="M276.622,116.048 C276.622,114.903 277.566,113.975 278.73,113.975 C279.894,113.975 280.837,114.903 280.837,116.048 C280.837,117.192 279.894,118.12 278.73,118.12 C277.566,118.12 276.622,117.192 276.622,116.048 Z" />
            <path d="M249.41,115.988 C249.41,114.844 250.353,113.916 251.517,113.916 C252.681,113.916 253.624,114.844 253.624,115.988 C253.624,117.133 252.681,118.061 251.517,118.061 C250.353,118.061 249.41,117.133 249.41,115.988 Z" />
            <path d="M246.207,145.893 C243.208,145.55 240.269,144.121 238.118,141.961 C236.069,139.901 234.747,137.302 234.349,134.549 L234.214,133.613 L233.414,133.353 C231.511,132.736 230.018,131.837 228.69,130.509 C224.222,126.045 224.211,118.983 228.665,114.514 C230.032,113.142 231.804,112.07 233.434,111.629 L234.155,111.434 L234.216,110.808 C234.405,108.898 234.544,108.06 234.844,107.005 C236.21,102.211 239.803,98.924 245.038,97.679 C245.719,97.517 246.876,97.488 254.206,97.449 L262.595,97.404 L262.59,94.987 L262.586,92.57 L261.341,91.972 C260.22,91.434 259.996,91.273 259.088,90.356 C257.317,88.568 256.546,86.753 256.548,84.378 C256.55,81.995 257.27,80.227 258.913,78.571 C260.029,77.445 261.042,76.811 262.508,76.317 C263.467,75.994 263.656,75.969 265.103,75.966 C266.578,75.962 266.722,75.982 267.723,76.325 C271.652,77.671 273.967,81.596 273.252,85.697 C272.745,88.611 271.148,90.77 268.595,91.996 L267.398,92.57 L267.393,94.995 L267.388,97.419 L275.013,97.419 C279.447,97.419 283.106,97.467 283.757,97.534 C286.799,97.846 289.783,99.275 291.936,101.449 C294.126,103.66 295.421,106.612 295.697,110.023 C295.757,110.769 295.821,111.392 295.84,111.408 C295.858,111.424 296.173,111.522 296.541,111.627 C299.578,112.491 302.314,114.894 303.652,117.873 C305.069,121.026 305.003,124.352 303.462,127.459 C302.025,130.358 299.632,132.401 296.546,133.363 L295.771,133.604 L295.628,134.597 C295.356,136.48 294.487,138.654 293.38,140.222 C292.612,141.31 290.982,142.881 289.852,143.622 C287.968,144.858 285.613,145.687 283.371,145.905 C281.997,146.039 247.38,146.028 246.206,145.893 Z M284.171,140.903 C286.647,140.392 288.941,138.599 290.069,136.294 C290.904,134.585 290.857,135.454 290.857,121.83 C290.857,107.995 290.906,108.797 289.942,106.872 C289.537,106.064 289.244,105.668 288.474,104.891 C287.646,104.055 287.349,103.839 286.341,103.34 C285.496,102.921 284.869,102.699 284.083,102.539 C283.02,102.324 282.563,102.319 264.573,102.35 L246.151,102.38 L245.283,102.627 C243.819,103.043 242.714,103.695 241.62,104.787 C240.8,105.606 240.571,105.922 240.083,106.907 C239.049,108.992 239.093,108.352 239.067,121.803 C239.047,131.942 239.066,133.581 239.215,134.258 C239.817,137.006 241.347,138.953 243.921,140.249 C245.712,141.15 244.399,141.097 264.937,141.104 C282.3,141.11 283.212,141.101 284.171,140.903 Z M258.569,133.382 C257.548,133.012 257.023,132.331 256.941,131.27 C256.895,130.666 256.928,130.504 257.21,129.969 C257.636,129.162 258.246,128.777 259.308,128.644 C259.736,128.591 264.691,130.156 267.671,129.472 C269.086,129.34 270.48,128.294 271.777,128.952 C273.429,129.79 273.485,132.222 271.873,133.169 C270.464,133.921 268.769,134.203 267.185,134.371 C262.425,134.874 258.886,133.497 258.569,133.382 Z M250.165,122.39 C248.749,122.074 247.674,121.48 246.69,120.471 C244.831,118.561 244.433,115.46 245.732,112.988 C246.863,110.836 248.936,109.547 251.28,109.537 C253.169,109.529 254.545,110.101 255.932,111.473 C256.926,112.454 257.468,113.446 257.757,114.812 C258.405,117.87 256.462,121.054 253.304,122.108 C252.345,122.428 250.914,122.557 250.165,122.39 Z M252.165,117.466 C253.044,117.065 253.2,115.611 252.454,114.776 C252.156,114.442 252.085,114.418 251.409,114.418 C250.791,114.418 250.64,114.459 250.382,114.696 C250.019,115.032 249.775,115.569 249.775,116.035 C249.775,116.51 250.161,117.221 250.528,117.419 C250.896,117.619 251.774,117.644 252.165,117.466 Z M277.256,122.392 C275.253,121.957 273.526,120.635 272.691,118.895 C272.202,117.877 272.078,117.322 272.074,116.141 C272.066,113.373 273.771,110.829 276.247,109.912 C279.371,108.756 282.855,110.202 284.339,113.271 C286.015,116.735 284.181,120.844 280.395,122.108 C279.44,122.427 278.011,122.556 277.256,122.392 Z M279.312,117.43 C279.659,117.251 280.1,116.461 280.096,116.027 C280.093,115.655 279.737,114.911 279.434,114.641 C279.238,114.466 279.025,114.418 278.462,114.418 C277.774,114.418 277.723,114.437 277.367,114.825 C276.672,115.582 276.781,116.897 277.579,117.383 C277.998,117.639 278.864,117.662 279.312,117.43 Z M234.167,122.499 C234.167,118.448 234.13,116.591 234.05,116.591 C233.643,116.591 232.325,117.57 231.674,118.355 C229.589,120.87 229.687,124.452 231.905,126.855 C232.536,127.537 233.718,128.406 234.017,128.406 C234.141,128.406 234.167,127.373 234.167,122.499 Z M296.776,127.977 C298.635,126.766 299.828,124.625 299.828,122.499 C299.828,120.877 299.091,119.121 297.909,117.929 C297.268,117.282 296.264,116.595 295.957,116.592 C295.847,116.591 295.818,117.846 295.818,122.499 C295.818,127.373 295.844,128.406 295.968,128.406 C296.05,128.406 296.414,128.213 296.776,127.977 Z M266.576,87.604 C267.332,87.236 267.908,86.647 268.308,85.835 C268.673,85.096 268.668,83.53 268.299,82.834 C267.909,82.098 267.212,81.407 266.513,81.064 C265.985,80.805 265.741,80.755 264.992,80.755 C264.243,80.755 264,80.805 263.471,81.064 C262.255,81.662 261.479,82.799 261.393,84.113 C261.302,85.505 261.955,86.754 263.147,87.468 C264.278,88.146 265.375,88.19 266.576,87.604 Z" />
        </g>
        <g id="Regular-S">
            <path d="M476.622,116.048 C476.622,114.903 477.566,113.975 478.73,113.975 C479.894,113.975 480.837,114.903 480.837,116.048 C480.837,117.192 479.894,118.12 478.73,118.12 C477.566,118.12 476.622,117.192 476.622,116.048 Z" />
            <path d="M449.41,115.988 C449.41,114.844 450.353,113.916 451.517,113.916 C452.681,113.916 453.624,114.844 453.624,115.988 C453.624,117.133 452.681,118.061 451.517,118.061 C450.353,118.061 449.41,117.133 449.41,115.988 Z" />
            <path d="M446.207,145.893 C443.208,145.55 440.269,144.121 438.118,141.961 C436.069,139.901 434.747,137.302 434.349,134.549 L434.214,133.613 L433.414,133.353 C431.511,132.736 430.018,131.837 428.69,130.509 C424.222,126.045 424.211,118.983 428.665,114.514 C430.032,113.142 431.804,112.07 433.434,111.629 L434.155,111.434 L434.216,110.808 C434.405,108.898 434.544,108.06 434.844,107.005 C436.21,102.211 439.803,98.924 445.038,97.679 C445.719,97.517 446.876,97.488 454.206,97.449 L462.595,97.404 L462.59,94.987 L462.586,92.57 L461.341,91.972 C460.22,91.434 459.996,91.273 459.088,90.356 C457.317,88.568 456.546,86.753 456.548,84.378 C456.55,81.995 457.27,80.227 458.913,78.571 C460.029,77.445 461.042,76.811 462.508,76.317 C463.467,75.994 463.656,75.969 465.103,75.966 C466.578,75.962 466.722,75.982 467.723,76.325 C471.652,77.671 473.967,81.596 473.252,85.697 C472.745,88.611 471.148,90.77 468.595,91.996 L467.398,92.57 L467.393,94.995 L467.388,97.419 L475.013,97.419 C479.447,97.419 483.106,97.467 483.757,97.534 C486.799,97.846 489.783,99.275 491.936,101.449 C494.126,103.66 495.421,106.612 495.697,110.023 C495.757,110.769 495.821,111.392 495.84,111.408 C495.858,111.424 496.173,111.522 496.541,111.627 C499.578,112.491 502.314,114.894 503.652,117.873 C505.069,121.026 505.003,124.352 503.462,127.459 C502.025,130.358 499.632,132.401 496.546,133.363 L495.771,133.604 L495.628,134.597 C495.356,136.48 494.487,138.654 493.38,140.222 C492.612,141.31 490.982,142.881 489.852,143.622 C487.968,144.858 485.613,145.687 483.371,145.905 C481.997,146.039 447.38,146.028 446.206,145.893 Z M484.171,140.903 C486.647,140.392 488.941,138.599 490.069,136.294 C490.904,134.585 490.857,135.454 490.857,121.83 C490.857,107.995 490.906,108.797 489.942,106.872 C489.537,106.064 489.244,105.668 488.474,104.891 C487.646,104.055 487.349,103.839 486.341,103.34 C485.496,102.921 484.869,102.699 484.083,102.539 C483.02,102.324 482.563,102.319 464.573,102.35 L446.151,102.38 L445.283,102.627 C443.819,103.043 442.714,103.695 441.62,104.787 C440.8,105.606 440.571,105.922 440.083,106.907 C439.049,108.992 439.093,108.352 439.067,121.803 C439.047,131.942 439.066,133.581 439.215,134.258 C439.817,137.006 441.347,138.953 443.921,140.249 C445.712,141.15 444.399,141.097 464.937,141.104 C482.3,141.11 483.212,141.101 484.171,140.903 Z M458.569,133.382 C457.548,133.012 457.023,132.331 456.941,131.27 C456.895,130.666 456.928,130.504 457.21,129.969 C457.636,129.162 458.246,128.777 459.308,128.644 C459.736,128.591 464.691,130.156 467.671,129.472 C469.086,129.34 470.48,128.294 471.777,128.952 C473.429,129.79 473.485,132.222 471.873,133.169 C470.463,133.921 468.769,134.203 467.185,134.371 C462.425,134.874 458.886,133.497 458.569,133.382 Z M450.165,122.39 C448.749,122.074 447.674,121.48 446.69,120.471 C444.831,118.561 444.433,115.46 445.732,112.988 C446.863,110.836 448.936,109.547 451.28,109.537 C453.169,109.529 454.545,110.101 455.932,111.473 C456.926,112.454 457.468,113.446 457.757,114.812 C458.405,117.87 456.462,121.054 453.304,122.108 C452.345,122.428 450.914,122.557 450.165,122.39 Z M452.165,117.466 C453.044,117.065 453.2,115.611 452.454,114.776 C452.156,114.442 452.085,114.418 451.409,114.418 C450.791,114.418 450.64,114.459 450.382,114.696 C450.019,115.032 449.775,115.569 449.775,116.035 C449.775,116.51 450.161,117.221 450.528,117.419 C450.896,117.619 451.774,117.644 452.165,117.466 Z M477.256,122.392 C475.253,121.957 473.526,120.635 472.691,118.895 C472.202,117.877 472.078,117.322 472.074,116.141 C472.066,113.373 473.771,110.829 476.247,109.912 C479.371,108.756 482.855,110.202 484.339,113.271 C486.015,116.735 484.181,120.844 480.395,122.108 C479.44,122.427 478.011,122.556 477.256,122.392 Z M479.312,117.43 C479.659,117.251 480.1,116.461 480.096,116.027 C480.093,115.655 479.737,114.911 479.434,114.641 C479.238,114.466 479.025,114.418 478.462,114.418 C477.774,114.418 477.723,114.437 477.367,114.825 C476.672,115.582 476.781,116.897 477.579,117.383 C477.998,117.639 478.864,117.662 479.312,117.43 Z M434.167,122.499 C434.167,118.448 434.13,116.591 434.05,116.591 C433.643,116.591 432.325,117.57 431.674,118.355 C429.589,120.87 429.687,124.452 431.905,126.855 C432.536,127.537 433.718,128.406 434.017,128.406 C434.141,128.406 434.167,127.373 434.167,122.499 Z M496.776,127.977 C498.635,126.766 499.828,124.625 499.828,122.499 C499.828,120.877 499.09,119.121 497.909,117.929 C497.268,117.282 496.264,116.595 495.957,116.592 C495.847,116.591 495.818,117.846 495.818,122.499 C495.818,127.373 495.844,128.406 495.968,128.406 C496.05,128.406 496.414,128.213 496.776,127.977 Z M466.576,87.604 C467.332,87.236 467.908,86.647 468.308,85.835 C468.673,85.096 468.668,83.53 468.299,82.834 C467.909,82.098 467.212,81.407 466.513,81.064 C465.985,80.805 465.741,80.755 464.992,80.755 C464.243,80.755 464,80.805 463.471,81.064 C462.255,81.662 461.479,82.799 461.393,84.113 C461.302,85.505 461.955,86.754 463.147,87.468 C464.278,88.146 465.375,88.19 466.576,87.604 Z" />
        </g>
        <g id="Black-S">
            <path d="M676.622,116.048 C676.622,114.903 677.566,113.975 678.73,113.975 C679.894,113.975 680.837,114.903 680.837,116.048 C680.837,117.192 679.894,118.12 678.73,118.12 C677.566,118.12 676.622,117.192 676.622,116.048 Z" />
            <path d="M649.41,115.988 C649.41,114.844 650.353,113.916 651.517,113.916 C652.681,113.916 653.625,114.844 653.625,115.988 C653.625,117.133 652.681,118.061 651.517,118.061 C650.353,118.061 649.41,117.133 649.41,115.988 Z" />
            <path d="M646.207,145.893 C643.208,145.55 640.269,144.121 638.118,141.961 C636.069,139.901 634.747,137.302 634.349,134.549 L634.214,133.613 L633.414,133.353 C631.511,132.736 630.018,131.837 628.69,130.509 C624.222,126.045 624.211,118.983 628.665,114.514 C630.032,113.142 631.804,112.07 633.434,111.629 L634.155,111.434 L634.216,110.808 C634.405,108.898 634.544,108.06 634.844,107.005 C636.21,102.211 639.803,98.924 645.038,97.679 C645.719,97.517 646.876,97.488 654.206,97.449 L662.595,97.404 L662.59,94.987 L662.586,92.57 L661.341,91.972 C660.22,91.434 659.996,91.273 659.088,90.356 C657.317,88.568 656.546,86.753 656.548,84.378 C656.55,81.995 657.27,80.227 658.913,78.571 C660.029,77.445 661.042,76.811 662.508,76.317 C663.467,75.994 663.656,75.969 665.103,75.966 C666.578,75.962 666.722,75.982 667.723,76.325 C671.652,77.671 673.968,81.596 673.252,85.697 C672.745,88.611 671.148,90.77 668.595,91.996 L667.398,92.57 L667.393,94.995 L667.388,97.419 L675.013,97.419 C679.447,97.419 683.106,97.467 683.757,97.534 C686.799,97.846 689.783,99.275 691.936,101.449 C694.126,103.66 695.421,106.612 695.697,110.023 C695.757,110.769 695.821,111.392 695.84,111.408 C695.858,111.424 696.173,111.522 696.541,111.627 C699.578,112.491 702.314,114.894 703.652,117.873 C705.069,121.026 705.003,124.352 703.462,127.459 C702.025,130.358 699.632,132.401 696.546,133.363 L695.771,133.604 L695.628,134.597 C695.356,136.48 694.487,138.654 693.38,140.222 C692.612,141.31 690.982,142.881 689.852,143.622 C687.968,144.858 685.613,145.687 683.371,145.905 C681.997,146.039 647.38,146.028 646.206,145.893 Z M684.171,140.903 C686.647,140.392 688.941,138.599 690.069,136.294 C690.904,134.585 690.857,135.454 690.857,121.83 C690.857,107.995 690.906,108.797 689.942,106.872 C689.537,106.064 689.244,105.668 688.474,104.891 C687.646,104.055 687.349,103.839 686.341,103.34 C685.496,102.921 684.869,102.699 684.083,102.539 C683.02,102.324 682.563,102.319 664.573,102.35 L646.151,102.38 L645.283,102.627 C643.819,103.043 642.714,103.695 641.62,104.787 C640.8,105.606 640.571,105.922 640.083,106.907 C639.049,108.992 639.093,108.352 639.067,121.803 C639.047,131.942 639.066,133.581 639.215,134.258 C639.817,137.006 641.347,138.953 643.921,140.249 C645.712,141.15 644.399,141.097 664.937,141.104 C682.3,141.11 683.212,141.101 684.171,140.903 Z M658.569,133.382 C657.548,133.012 657.023,132.331 656.941,131.27 C656.895,130.666 656.928,130.504 657.21,129.969 C657.636,129.162 658.246,128.777 659.308,128.644 C659.737,128.591 664.691,130.156 667.671,129.472 C669.086,129.34 670.48,128.294 671.777,128.952 C673.429,129.79 673.485,132.222 671.873,133.169 C670.464,133.921 668.769,134.203 667.185,134.371 C662.425,134.874 658.886,133.497 658.569,133.382 Z M650.165,122.39 C648.749,122.074 647.674,121.48 646.69,120.471 C644.831,118.561 644.433,115.46 645.732,112.988 C646.863,110.836 648.936,109.547 651.28,109.537 C653.169,109.529 654.545,110.101 655.932,111.473 C656.926,112.454 657.468,113.446 657.757,114.812 C658.405,117.87 656.462,121.054 653.304,122.108 C652.345,122.428 650.914,122.557 650.165,122.39 Z M652.165,117.466 C653.044,117.065 653.2,115.611 652.454,114.776 C652.156,114.442 652.085,114.418 651.409,114.418 C650.791,114.418 650.64,114.459 650.383,114.696 C650.019,115.032 649.775,115.569 649.775,116.035 C649.775,116.51 650.161,117.221 650.528,117.419 C650.896,117.619 651.774,117.644 652.165,117.466 Z M677.256,122.392 C675.253,121.957 673.526,120.635 672.691,118.895 C672.202,117.877 672.078,117.322 672.074,116.141 C672.066,113.373 673.771,110.829 676.247,109.912 C679.371,108.756 682.855,110.202 684.339,113.271 C686.015,116.735 684.181,120.844 680.395,122.108 C679.44,122.427 678.011,122.556 677.256,122.392 Z M679.312,117.43 C679.659,117.251 680.1,116.461 680.096,116.027 C680.093,115.655 679.737,114.911 679.434,114.641 C679.238,114.466 679.025,114.418 678.462,114.418 C677.774,114.418 677.723,114.437 677.367,114.825 C676.672,115.582 676.781,116.897 677.579,117.383 C677.998,117.639 678.864,117.662 679.312,117.43 Z M634.167,122.499 C634.167,118.448 634.13,116.591 634.05,116.591 C633.643,116.591 632.325,117.57 631.674,118.355 C629.589,120.87 629.687,124.452 631.905,126.855 C632.536,127.537 633.718,128.406 634.017,128.406 C634.141,128.406 634.167,127.373 634.167,122.499 Z M696.776,127.977 C698.635,126.766 699.828,124.625 699.828,122.499 C699.828,120.877 699.091,119.121 697.909,117.929 C697.268,117.282 696.264,116.595 695.957,116.592 C695.847,116.591 695.818,117.846 695.818,122.499 C695.818,127.373 695.844,128.406 695.968,128.406 C696.05,128.406 696.414,128.213 696.776,127.977 Z M666.576,87.604 C667.332,87.236 667.908,86.647 668.308,85.835 C668.673,85.096 668.668,83.53 668.299,82.834 C667.909,82.098 667.212,81.407 666.513,81.064 C665.985,80.805 665.741,80.755 664.992,80.755 C664.243,80.755 664,80.805 663.471,81.064 C662.255,81.662 661.479,82.799 661.393,84.113 C661.302,85.505 661.955,86.754 663.147,87.468 C664.278,88.146 665.375,88.19 666.576,87.604 Z" />
        </g>
    </g>
</svg>